<svg id="visual" viewBox="0 0 900 900" width="900" height="900" xmlns="http://www.w3.org/2000/svg" xmlns:xlink="http://www.w3.org/1999/xlink" version="1.1"><path d="M719 900L701 850C683 800 647 700 647 600C647 500 683 400 680 300C677 200 635 100 614 50L593 0L900 0L900 50C900 100 900 200 900 300C900 400 900 500 900 600C900 700 900 800 900 850L900 900Z" fill="#b38dfe"></path><path d="M638 900L615.5 850C593 800 548 700 554 600C560 500 617 400 614 300C611 200 548 100 516.5 50L485 0L594 0L615 50C636 100 678 200 681 300C684 400 648 500 648 600C648 700 684 800 702 850L720 900Z" fill="#a578fc"></path><path d="M575 900L546.5 850C518 800 461 700 458 600C455 500 506 400 507.5 300C509 200 461 100 437 50L413 0L486 0L517.5 50C549 100 612 200 615 300C618 400 561 500 555 600C549 700 594 800 616.5 850L639 900Z" fill="#9663fa"></path><path d="M386 900L372.5 850C359 800 332 700 329 600C326 500 347 400 342.5 300C338 200 308 100 293 50L278 0L414 0L438 50C462 100 510 200 508.5 300C507 400 456 500 459 600C462 700 519 800 547.5 850L576 900Z" fill="#8652ed"></path><path d="M296 900L275 850C254 800 212 700 210.5 600C209 500 248 400 239 300C230 200 173 100 144.5 50L116 0L279 0L294 50C309 100 339 200 343.5 300C348 400 327 500 330 600C333 700 360 800 373.5 850L387 900Z" fill="#7646d5"></path><path d="M0 900L0 850C0 800 0 700 0 600C0 500 0 400 0 300C0 200 0 100 0 50L0 0L117 0L145.5 50C174 100 231 200 240 300C249 400 210 500 211.5 600C213 700 255 800 276 850L297 900Z" fill="#673abd"></path></svg>